# xmcd
#
# Track frame offsets:
#	150
#	20521
#	39112
#	55259
#	71216
#	98001
#	112780
#	130338
#	149732
#	165046
#	181553
#	196603
#	215301
#	229592
#	250929
#	265072
#	284544
#	314566
#
# Disc length: 4520 seconds
#
# Revision: 1
# Processed by: cddbd v1.5PL3 Copyright (c) Steve Scherf et al.
# Submitted via: audiograbber 1.83.01
#
DISCID=f211a612
DTITLE=Various Artist - Парад любви 3. (2004)
DYEAR=1900
DGENRE=
TTITLE0=Притяженья больше нет. - Притяженья больше нет.
TTITLE1=V.I.P. - Прощай.
TTITLE2=Краски. - Весна.
TTITLE3=Наталья Сенчукова and Виктор Рыбин. - Ботаник.
TTITLE4=Гости из будущего. - Никто кроме тебя.
TTITLE5=Елена Неклюдова. - Вспоминай.
TTITLE6=Алексей Гоман. - Жестокая девчонка.
TTITLE7=Игорь Николаев. - Любить ее так, как я.
TTITLE8=Dado. - Я мечтаю о тебе.
TTITLE9=Стрелки. - Ты далеко.
TTITLE10=Рената. - Ты попал.
TTITLE11=Валерий Меладзе. - Я не могу без тебя.
TTITLE12=Другие правила. - Читай по губам.
TTITLE13=Витас. - Косички.
TTITLE14=Этэри. - Подожди.
TTITLE15=Стерео. - Луч рассвета.
TTITLE16=Шао? Бао! - Электронная любовь.
TTITLE17=Rolik - Диск с данными [CD-ROM)
EXTD=
EXTT0=
EXTT1=
EXTT2=
EXTT3=
EXTT4=
EXTT5=
EXTT6=
EXTT7=
EXTT8=
EXTT9=
EXTT10=
EXTT11=
EXTT12=
EXTT13=
EXTT14=
EXTT15=
EXTT16=
EXTT17=
PLAYORDER=
